PathFileType	4	(X/Y/Z)	OpenSim_Sub01_CSStiffKnee_Gyro.trc
DataRate	CameraRate	NumFrames	NumMarkers	Units	OrigDataRate	OrigDataStartFrame	OrigNumFrames
100	100	16	8	m	100	2691	5381
Frame#	Time	torso_imu_offset_imu	pelvis_imu_offset_imu	tibia_r_imu_offset_imu	femur_r_imu_offset_imu	tibia_l_imu_offset_imu	femur_l_imu_offset_imu	toes_r_imu_offset_imu	toes_l_imu_offset_imu
				X1	Y1	Z1	X2	Y2	Z2	X3	Y3	Z3	X4	Y4	Z4	X5	Y5	Z5	X6	Y6	Z6	X7	Y7	Z7	X8		Y8	Z8	

2691	26.90000000	0.75979955	-0.21924671	0.34348351	0.44856499	0.09198133	-0.34639551	-0.30470016	-0.14541061	-0.49563411	-0.34771798	-0.00180974	-0.73180774	-0.07508223	-0.27990114	-2.35394922	0.28831637	0.61076033	-1.10904616	-0.11131251	-0.31573120	-0.07176416	0.32884033	2.09192134	-0.90348154
2692	26.91000000	0.75262029	-0.25124893	0.36233924	0.33088179	0.06430541	-0.32449344	-0.38786783	-0.10625940	-0.50588871	-0.26312410	0.02615422	-0.68706196	-0.26116177	-0.22185849	-2.36248653	0.39160942	0.61622623	-1.14770660	-0.15951289	-0.36440515	-0.03109090	0.24084635	1.91596241	-0.95600242
2693	26.92000000	0.72512035	-0.27149559	0.37244143	0.21354460	0.02297544	-0.30160660	-0.43773664	-0.06487188	-0.51582914	-0.18704372	0.04467193	-0.66503676	-0.30884304	-0.17144020	-2.39375879	0.44479650	0.61696754	-1.13580459	-0.18739080	-0.39707872	0.01134866	0.17273493	1.85843243	-0.96684519
2694	26.93000000	0.67884091	-0.27771482	0.37345006	0.10263613	-0.01680467	-0.27959687	-0.44752455	-0.03343281	-0.52750394	-0.11827531	0.05451593	-0.65648980	-0.27370830	-0.14359152	-2.43532207	0.46409754	0.60203959	-1.10335926	-0.20639725	-0.41796904	0.04675941	0.13171535	1.90020266	-0.93819032
2695	26.94000000	0.61610318	-0.26803193	0.36505767	0.00310608	-0.04008613	-0.26043761	-0.41071797	-0.02454641	-0.54287796	-0.05298589	0.05722615	-0.65130410	-0.22019445	-0.15199435	-2.47373684	0.46866842	0.56020548	-1.08197321	-0.22958411	-0.43219666	0.06647763	0.12335668	2.01224859	-0.87389681
2696	26.95000000	0.53999434	-0.24581839	0.34629645	-0.08374433	-0.05067766	-0.24617155	-0.34009453	-0.03972453	-0.55806890	-0.00588944	0.05254522	-0.64526561	-0.17869989	-0.18329136	-2.50181951	0.45631890	0.49588868	-1.06901896	-0.25954202	-0.43997417	0.06921412	0.13955270	2.14400804	-0.78878550
2697	26.96000000	0.45405908	-0.21752864	0.31581730	-0.15875738	-0.06340704	-0.23887968	-0.25981402	-0.07392822	-0.56576820	-0.00258374	0.03917218	-0.63763721	-0.15950911	-0.20823817	-2.51607615	0.41229364	0.42275939	-1.04172859	-0.29267648	-0.43862826	0.05803158	0.16413587	2.23234339	-0.70410122
2698	26.97000000	0.36305262	-0.18711863	0.27402036	-0.22091001	-0.08331970	-0.24007744	-0.19448413	-0.12057101	-0.56355048	-0.05654678	0.01934398	-0.62656142	-0.16563211	-0.21109192	-2.51284741	0.32761169	0.35629251	-0.98841137	-0.32241967	-0.42747609	0.03633206	0.18219341	2.24163189	-0.63207074
2699	26.98000000	0.27441786	-0.15288069	0.22521976	-0.26495524	-0.09331609	-0.25001720	-0.16938365	-0.16980245	-0.55998497	-0.15390010	0.00322167	-0.60758069	-0.18442765	-0.20669340	-2.48799843	0.20653856	0.31572311	-0.92267353	-0.33574801	-0.41035930	0.00814926	0.18184467	2.19800664	-0.56461393
2700	26.99000000	0.19558515	-0.11273041	0.17411606	-0.28579969	-0.07552558	-0.26833637	-0.20433815	-0.21160013	-0.56462948	-0.27556024	0.00042624	-0.57676655	-0.20180099	-0.21267442	-2.43800080	0.05559104	0.31728466	-0.86156034	-0.32028545	-0.39130998	-0.02274262	0.15333489	2.13207330	-0.49207149
2701	27	0.13010055	-0.06860548	0.12393193	-0.28583570	-0.03505010	-0.29008785	-0.26193864	-0.23872576	-0.58188992	-0.38692198	0.00393428	-0.53928475	-0.21051436	-0.23275951	-2.36625133	-0.11397663	0.34097126	-0.82228423	-0.27935866	-0.37000673	-0.05613072	0.10462066	2.03434666	-0.41684717
2702	27.01000000	0.07921709	-0.02482335	0.07701877	-0.27187625	0.00947068	-0.30763066	-0.27118072	-0.24561371	-0.61311301	-0.44431893	-0.00305489	-0.50565109	-0.20740088	-0.26244926	-2.28023126	-0.28813233	0.34551073	-0.82208255	-0.22555661	-0.34357962	-0.09389220	0.05411405	1.87184864	-0.34848556
2703	27.02000000	0.04383349	0.01280298	0.03584333	-0.25174178	0.04237889	-0.31557013	-0.19663228	-0.23311301	-0.65538623	-0.42427867	-0.02855832	-0.48326084	-0.19477880	-0.29303584	-2.18725084	-0.45641063	0.31331003	-0.86257016	-0.17127923	-0.31332099	-0.13560597	0.02178192	1.64491798	-0.30176824
2704	27.03000000	0.02412400	0.03519222	0.00315486	-0.23537318	0.05506021	-0.31360136	-0.08320142	-0.21633730	-0.69638188	-0.34864831	-0.06071256	-0.47239223	-0.18708781	-0.30665850	-2.09412097	-0.61638447	0.28022399	-0.91050327	-0.12823763	-0.28988393	-0.17566267	0.03075892	1.42890963	-0.30295599
2705	27.04000000	0.01959392	0.03394998	-0.01853552	-0.23255015	0.04127933	-0.30238170	0.01449187	-0.21069876	-0.72345172	-0.24395738	-0.08572785	-0.47201042	-0.19787468	-0.28730573	-2.00682195	-0.76529037	0.28435166	-0.93070747	-0.10687757	-0.28441685	-0.20819666	0.09961826	1.30170080	-0.37506530
2706	27.05000000	0.02385437	0.01233831	-0.02956960	-0.24842642	0.00952221	-0.28539276	0.05378940	-0.21476608	-0.73379033	-0.12177077	-0.09769823	-0.47746619	-0.21453638	-0.25084244	-1.92345644	-0.88566374	0.31230151	-0.91676958	-0.10554424	-0.30010647	-0.23194380	0.19541803	1.26242075	-0.49158501
